<svg xmlns="http://www.w3.org/2000/svg" width="256" height="256" xml:space="preserve"><path fill="#000" d="M85.545 90H81.5c0-20.126-16.374-36.5-36.5-36.5S8.5 69.874 8.5 90H4.455c0-22.357 18.188-40.545 40.545-40.545S85.545 67.643 85.545 90zM45 44.935c-12.389 0-22.467-10.079-22.467-22.468S32.611 0 45 0s22.467 10.079 22.467 22.467S57.389 44.935 45 44.935zm0-40.89c-10.158 0-18.422 8.264-18.422 18.422S34.842 40.89 45 40.89c10.158 0 18.422-8.265 18.422-18.423S55.158 4.045 45 4.045z"  transform="matrix(2.81 0 0 2.81 1.407 1.407)"/></svg>