<svg xmlns="http://www.w3.org/2000/svg" viewBox="0 0 1000 1000" xml:space="preserve"><path d="M515.4 850.5 479.3 873V529.3l302.3-192.6v144.6c27.7 4.4 54 13.3 78 25.9v-246L448.8 10 38 261.1v480.3L448.8 990 567 918.5c-20.8-19.5-38.3-42.5-51.6-68zM411 873 108.7 685.3V336.6L411 529.3V873zM146.5 266l302.3-156 293.7 168.2-293.7 175.5L146.5 266z"/><path d="M741.4 512.2c-121.8 0-220.6 98.8-220.6 220.6s98.8 220.6 220.6 220.6S962 854.6 962 732.8s-98.8-220.6-220.6-220.6zm135.3 252.3H773.1v103.6h-63.4V764.5H606.1v-63.4h103.6V597.5h63.4v103.6h103.6v63.4z"/></svg>